<svg xmlns="http://www.w3.org/2000/svg" viewBox="0 0 1200 600"><defs><style>.cls-1{fill:#0af220;}.cls-2{fill:#006837;}.cls-3{fill:#02b22b;}.cls-4{fill:none;stroke:#117a05;stroke-miterlimit:10;stroke-width:3.28px;}</style></defs><g id="Layer_2_copy" data-name="Layer 2 copy"><rect width="1200" height="600"/></g><g id="Layer_1_copy" data-name="Layer 1 copy"><polygon class="cls-1" points="1200 0 1181.22 29.78 751.83 29.78 717.28 79.61 479.64 79.61 447.72 29.78 18.77 29.78 0 0 1200 0"/><path class="cls-2" d="M493.58,14.64h8.56L509,23.4l6.85-8.76h8.55V32.17h-6.84V22.82l-6.85,9.35h-3.42l-6.84-9.35v9.35h-6.84Z"/><path class="cls-2" d="M528.34,14.66h20.52v4.49H535.18V21.4h13.68v4.05H535.18V27.7h13.68v4.5H528.34Z"/><path class="cls-2" d="M559.32,14.64v12H573v5.56H552.49V14.64Z"/><path class="cls-2" d="M576.59,32.2v-12h-8.12V14.66h23.09v5.56h-8.13v12Z"/><path class="cls-2" d="M609.44,14.66a8.41,8.41,0,0,1,8.35,8.77,8.43,8.43,0,0,1-8.35,8.77h-15.6V14.66Zm-1.28,5.56h-7.49v6.42h7.49c1.78,0,2.78-1.45,2.78-3.21S609.94,20.22,608.16,20.22Z"/><path class="cls-2" d="M643.55,22.77V24c0,6.63-5.37,8.55-12,8.56s-12-1.93-12-8.56V22.77c0-6.65,5.38-8.55,12-8.56S643.55,16.14,643.55,22.77Zm-6.83.41c0-2.85-2.34-3.38-5.13-3.42s-5.18.57-5.14,3.42v.43c0,2.87,2.33,3.4,5.14,3.43s5.16-.56,5.13-3.43Z"/><path class="cls-2" d="M674.26,14.66H682l-7.7,17.54h-8.13l-3.85-8.77-3.85,8.77h-8.12l-7.7-17.54h7.7l4.05,11.11,4.07-11.11h7.7l4.06,11.11Z"/><path class="cls-2" d="M699.58,14.64h6.84V32.17h-7.69l-9.42-10.71V32.17h-6.84V14.64h9.41l7.7,9.29Z"/><path class="cls-2" d="M530.48,57c-.43,5.93-5.62,7.7-11.93,7.7-6.58,0-12-1.92-12-8.56V54.82c0-6.62,5.4-8.53,12-8.56,6.31,0,11.5,1.79,11.93,7.7h-7c-.64-1.72-2.58-2.13-4.93-2.13-2.79,0-5.17.54-5.13,3.42v.43c0,2.86,2.34,3.38,5.13,3.42,2.35,0,4.3-.42,4.93-2.14Z"/><path class="cls-2" d="M539.35,58.24v6h-6.83V46.69h6.83v6h10.27v-6h6.85V64.23h-6.85v-6Z"/><path class="cls-2" d="M567.28,46.69V64.23h-6.84V46.69Z"/><path class="cls-2" d="M577.74,46.69v12h13.69v5.56H570.9V46.69Z"/><path class="cls-2" d="M609.34,46.72a8.42,8.42,0,0,1,8.35,8.77,8.44,8.44,0,0,1-8.35,8.77H593.73V46.72Zm-1.28,5.56h-7.49V58.7h7.49c1.77,0,2.78-1.45,2.78-3.21S609.83,52.28,608.06,52.28Z"/><path class="cls-2" d="M636.6,46.71a6.63,6.63,0,0,1,6.63,6.63,6.42,6.42,0,0,1-1.06,3.58,6.51,6.51,0,0,1-2.77,2.4l3.83,4.92H636L632.65,60h-6.11v4.28H619.7V46.71Zm-10.06,5.12v3h8.34a1.41,1.41,0,0,0,1-.43,1.44,1.44,0,0,0,.45-1,1.5,1.5,0,0,0-1.5-1.51Z"/><path class="cls-2" d="M645.33,46.72h20.53v4.49H652.17v2.24h13.69v4.06H652.17v2.24h13.69v4.51H645.33Z"/><path class="cls-2" d="M686.58,46.69h6.85V64.23h-7.69l-9.42-10.71V64.23h-6.84V46.69h9.41L686.58,56Z"/><path d="M490.52,14.64h8.56l6.84,8.76,6.85-8.76h8.54V32.17h-6.83V22.82l-6.85,9.35h-3.42l-6.85-9.35v9.35h-6.84Z"/><path d="M525.29,14.66h20.52v4.49H532.12V21.4h13.69v4.05H532.12V27.7h13.69v4.5H525.29Z"/><path d="M556.27,14.64v12H570v5.56H549.43V14.64Z"/><path d="M573.54,32.2v-12h-8.13V14.66H588.5v5.56h-8.12v12Z"/><path d="M606.39,14.66a8.42,8.42,0,0,1,8.35,8.77,8.44,8.44,0,0,1-8.35,8.77H590.78V14.66Zm-1.28,5.56h-7.49v6.42h7.49c1.77,0,2.78-1.45,2.78-3.21S606.88,20.22,605.11,20.22Z"/><path d="M640.5,22.77V24c0,6.63-5.38,8.55-12,8.56s-12-1.93-12-8.56V22.77c0-6.65,5.37-8.55,12-8.56S640.5,16.14,640.5,22.77Zm-6.84.41c0-2.85-2.33-3.38-5.13-3.42s-5.18.57-5.14,3.42v.43c0,2.87,2.34,3.4,5.14,3.43s5.17-.56,5.13-3.43Z"/><path d="M671.2,14.66h7.7L671.2,32.2h-8.12l-3.85-8.77-3.85,8.77h-8.13l-7.7-17.54h7.7l4.06,11.11,4.07-11.11h7.7l4,11.11Z"/><path d="M696.52,14.64h6.85V32.17h-7.7l-9.42-10.71V32.17h-6.83V14.64h9.4l7.7,9.29Z"/><path d="M527.43,57c-.43,5.93-5.62,7.7-11.94,7.7-6.57,0-12-1.92-12-8.56V54.82c0-6.62,5.4-8.53,12-8.56,6.32,0,11.51,1.79,11.94,7.7h-7c-.63-1.72-2.58-2.13-4.93-2.13-2.79,0-5.16.54-5.12,3.42v.43c0,2.86,2.33,3.38,5.12,3.42,2.35,0,4.31-.42,4.93-2.14Z"/><path d="M536.3,58.24v6h-6.84V46.69h6.84v6h10.26v-6h6.85V64.23h-6.85v-6Z"/><path d="M564.23,46.69V64.23h-6.84V46.69Z"/><path d="M574.69,46.69v12h13.68v5.56H567.85V46.69Z"/><path d="M606.28,46.72a8.41,8.41,0,0,1,8.35,8.77,8.43,8.43,0,0,1-8.35,8.77h-15.6V46.72ZM605,52.28h-7.49V58.7H605c1.78,0,2.78-1.45,2.78-3.21S606.78,52.28,605,52.28Z"/><path d="M633.54,46.71a6.62,6.62,0,0,1,6.63,6.63,6.34,6.34,0,0,1-1.06,3.58,6.49,6.49,0,0,1-2.76,2.4l3.82,4.92h-7.28L629.59,60h-6.1v4.28h-6.84V46.71Zm-10,5.12v3h8.33a1.49,1.49,0,0,0,1.5-1.48,1.49,1.49,0,0,0-1.5-1.51Z"/><path d="M642.28,46.72H662.8v4.49H649.12v2.24H662.8v4.06H649.12v2.24H662.8v4.51H642.28Z"/><path d="M683.53,46.69h6.85V64.23h-7.7l-9.42-10.71V64.23h-6.83V46.69h9.4l7.7,9.29Z"/><path class="cls-1" d="M77.74,264.57c3.21.16,7.72.39,7.72,3.27,0,3.29-3.77,4.07-7.81,4.07s-7.38-.5-7.81-4.07h4.7c.52.89,1.71,1.12,3.11,1.12s3.11-.23,3.11-1.12c0-.51-1.4-.58-3.21-.67-3.21-.16-7.72-.38-7.71-3.26,0-3.29,3.77-4.07,7.81-4.07s7.38.48,7.81,4.07h-4.7c-.52-.91-1.71-1.12-3.11-1.12s-3.11.2-3.11,1.12C74.54,264.42,75.94,264.48,77.74,264.57Z"/><path class="cls-1" d="M86.66,260.14h13.47v2.94h-9v1.47h9v2.66h-9v1.48h9v2.95H86.66Z"/><path class="cls-1" d="M106.65,260.14H112l6.17,11.5H113.1l-.91-2h-5.76l-.91,2h-5Zm1.08,6.72h3.16l-1.57-3.39Z"/><path class="cls-1" d="M125.66,264.57c3.21.16,7.73.39,7.72,3.27,0,3.29-3.77,4.07-7.81,4.07s-7.38-.5-7.81-4.07h4.7c.52.89,1.71,1.12,3.11,1.12s3.11-.23,3.11-1.12c0-.51-1.4-.58-3.2-.67-3.21-.16-7.73-.38-7.72-3.26,0-3.29,3.77-4.07,7.81-4.07s7.38.48,7.81,4.07h-4.7c-.52-.91-1.71-1.12-3.11-1.12s-3.11.2-3.11,1.12C122.46,264.42,123.86,264.48,125.66,264.57Z"/><path class="cls-1" d="M149.89,265.45v.84c0,4.35-3.53,5.61-7.85,5.62s-7.88-1.27-7.86-5.62v-.84c0-4.36,3.53-5.61,7.86-5.61S149.89,261.1,149.89,265.45Zm-4.49.28c0-1.88-1.53-2.22-3.36-2.25s-3.4.37-3.37,2.25V266c0,1.88,1.53,2.22,3.37,2.25s3.39-.37,3.36-2.25Z"/><path class="cls-1" d="M162.44,260.12h4.5v11.5h-5.05l-6.18-7v7h-4.49v-11.5h6.17l5.05,6.09Z"/><path class="cls-1" d="M184.41,260.13v8.14h3.78v3.36H175.85v-3.36h4.07v-4.5l-3.51,1.13v-3.65l3.51-1.12Z"/><path class="cls-1" d="M201.59,262.09v3.37H197.1v-3.37Zm0,6.18v3.36H197.1v-3.36Z"/><path class="cls-1" d="M218.4,264.57c3.21.16,7.72.39,7.71,3.27,0,3.29-3.77,4.07-7.81,4.07s-7.38-.5-7.8-4.07h4.7c.51.89,1.7,1.12,3.1,1.12s3.11-.23,3.11-1.12c0-.51-1.39-.58-3.2-.67-3.21-.16-7.72-.38-7.71-3.26,0-3.29,3.76-4.07,7.8-4.07s7.38.48,7.81,4.07h-4.7c-.51-.91-1.7-1.12-3.11-1.12s-3.1.2-3.1,1.12C215.2,264.42,216.59,264.48,218.4,264.57Z"/><path class="cls-1" d="M231.59,271.64v-7.86h-5.34v-3.64H241.4v3.64h-5.33v7.86Z"/><path class="cls-1" d="M244.6,260.14h5.34l6.17,11.5h-5.05l-.91-2h-5.76l-.91,2h-5Zm1.09,6.72h3.16l-1.58-3.39Z"/><path class="cls-1" d="M258.47,271.64v-7.86h-5.34v-3.64h15.16v3.64H263v7.86Z"/><path class="cls-1" d="M281,260.12h4.49v6.18c0,4.35-3.54,5.6-7.85,5.61s-7.88-1.26-7.86-5.61v-6.18h4.48V266c0,1.89,1.53,2.21,3.38,2.24s3.39-.35,3.36-2.24Z"/><path class="cls-1" d="M294.71,264.57c3.21.16,7.72.39,7.71,3.27,0,3.29-3.77,4.07-7.81,4.07s-7.38-.5-7.8-4.07h4.69c.52.89,1.71,1.12,3.11,1.12s3.11-.23,3.11-1.12c0-.51-1.4-.58-3.2-.67-3.21-.16-7.72-.38-7.71-3.26,0-3.29,3.76-4.07,7.8-4.07s7.38.48,7.81,4.07h-4.7c-.51-.91-1.7-1.12-3.11-1.12s-3.11.2-3.11,1.12C291.5,264.42,292.9,264.48,294.71,264.57Z"/><rect class="cls-3" x="34.74" y="292.34" width="302.79" height="45.14"/><rect class="cls-4" x="34.74" y="292.34" width="302.79" height="45.14"/><path class="cls-2" d="M93.59,307.11v10.16h4.72v4.19H82.91v-4.19H88v-5.61l-4.37,1.4v-4.55l4.37-1.4Z"/><path class="cls-2" d="M117,313.4v1.75a5.7,5.7,0,0,1-3,5.36,9.5,9.5,0,0,1-2.57.94,16.61,16.61,0,0,1-3.56.36,16.39,16.39,0,0,1-3.55-.36c-3-.65-5.55-2.4-5.55-6.3V313.4a5.67,5.67,0,0,1,3-5.35,9.08,9.08,0,0,1,2.57-.95,16.38,16.38,0,0,1,3.55-.35,16.59,16.59,0,0,1,3.56.35C114.39,307.75,117,309.51,117,313.4Zm-5.61.35a2.46,2.46,0,0,0-1.09-2.27,4.71,4.71,0,0,0-2.41-.53c-1.73,0-3.5.49-3.5,2.8v1.05a2.42,2.42,0,0,0,1.1,2.28,4.82,4.82,0,0,0,2.4.53c1.75,0,3.5-.48,3.5-2.81Z"/><path class="cls-2" d="M135.59,313.4v1.75a5.7,5.7,0,0,1-3,5.36,9.57,9.57,0,0,1-2.58.94,17.68,17.68,0,0,1-7.1,0c-3-.65-5.55-2.4-5.55-6.3V313.4a5.65,5.65,0,0,1,3-5.35,9.08,9.08,0,0,1,2.57-.95,18.18,18.18,0,0,1,7.1,0C133,307.75,135.59,309.51,135.59,313.4Zm-5.61.35a2.46,2.46,0,0,0-1.09-2.27,4.73,4.73,0,0,0-2.41-.53c-1.73,0-3.51.49-3.51,2.8v1.05a2.44,2.44,0,0,0,1.1,2.28,4.89,4.89,0,0,0,2.41.53c1.75,0,3.5-.48,3.5-2.81Z"/><path class="cls-2" d="M139.51,305.92a12.92,12.92,0,0,1,2.22-.21,13.13,13.13,0,0,1,2.23.21c1.87.43,3.51,1.5,3.48,4V311a3.54,3.54,0,0,1-1.86,3.36,6.15,6.15,0,0,1-1.62.6,12.19,12.19,0,0,1-2.23.21,12,12,0,0,1-2.22-.21c-1.9-.42-3.49-1.52-3.49-4v-1.1a3.54,3.54,0,0,1,1.86-3.37A6.22,6.22,0,0,1,139.51,305.92Zm.35,4.84a1.26,1.26,0,0,0,.53,1.16,2.55,2.55,0,0,0,1.34.28c1.29,0,1.88-.44,1.88-1.44v-.65a1.21,1.21,0,0,0-.55-1.15,2.34,2.34,0,0,0-1.33-.29c-1.29,0-1.87.45-1.87,1.44ZM151,305.71h5.25l-5.6,15.75h-5.26Zm3.19,11.58v-1.1a3.57,3.57,0,0,1,1.87-3.37,6.33,6.33,0,0,1,1.63-.59,11.36,11.36,0,0,1,4.45,0c1.89.4,3.49,1.51,3.49,4v1.1a3.54,3.54,0,0,1-1.86,3.36,6.35,6.35,0,0,1-1.63.6,11.89,11.89,0,0,1-4.45,0C155.8,320.82,154.19,319.76,154.19,317.29Zm3.85-.23a1.26,1.26,0,0,0,.53,1.16,2.54,2.54,0,0,0,1.34.29c1.29,0,1.88-.45,1.88-1.45v-.65a1.22,1.22,0,0,0-.54-1.15,2.49,2.49,0,0,0-1.34-.29c-1.29,0-1.87.45-1.87,1.44Z"/><path class="cls-2" d="M182.34,307.1v9.8h11.2v4.55h-16.8V307.1Z"/><path class="cls-2" d="M213.57,313.75v1.05c0,5.43-4.4,7-9.79,7s-9.83-1.58-9.81-7v-1.05c0-5.43,4.4-7,9.81-7S213.57,308.33,213.57,313.75Zm-5.6.34c0-2.33-1.91-2.76-4.19-2.79s-4.25.46-4.21,2.79v.36c0,2.35,1.91,2.77,4.21,2.81s4.22-.46,4.19-2.81Z"/><path class="cls-2" d="M220.16,307.12h6.65l7.71,14.36h-6.31L227.08,319h-7.19l-1.13,2.46h-6.3Zm1.36,8.4h3.94l-2-4.24Z"/><path class="cls-2" d="M247.72,307.12a7.19,7.19,0,0,1,0,14.36H234.94V307.12Zm-1.05,4.55h-6.13v5.26h6.13a2.66,2.66,0,0,0,0-5.26Z"/><path class="cls-2" d="M256.21,307.12H273v3.67h-11.2v1.84H273V316h-11.2v1.84H273v3.69h-16.8Z"/><path class="cls-2" d="M288.75,307.12a7.19,7.19,0,0,1,0,14.36H276V307.12Zm-1,4.55h-6.13v5.26h6.13a2.66,2.66,0,0,0,0-5.26Z"/><path d="M94.92,307.42v9.94h4.62v4.11H84.47v-4.11h5v-5.49l-4.28,1.37v-4.45l4.28-1.37Z"/><path d="M117.77,313.57v1.72a5.6,5.6,0,0,1-2.91,5.25,10,10,0,0,1-2.52.92,17.93,17.93,0,0,1-7,0c-2.93-.64-5.44-2.36-5.44-6.17v-1.72a5.55,5.55,0,0,1,2.92-5.23,9,9,0,0,1,2.52-.93,17.43,17.43,0,0,1,7,0C115.27,308,117.77,309.77,117.77,313.57Zm-5.48.35a2.43,2.43,0,0,0-1.07-2.23,4.74,4.74,0,0,0-2.36-.51c-1.69,0-3.43.47-3.43,2.74v1a2.37,2.37,0,0,0,1.08,2.23,4.65,4.65,0,0,0,2.35.52c1.71,0,3.43-.47,3.43-2.75Z"/><path d="M136,313.57v1.72a5.6,5.6,0,0,1-2.92,5.25,9.82,9.82,0,0,1-2.52.92,17.93,17.93,0,0,1-6.95,0c-2.93-.64-5.44-2.36-5.44-6.17v-1.72a5.55,5.55,0,0,1,2.92-5.23,9,9,0,0,1,2.52-.93,17.43,17.43,0,0,1,6.95,0C133.5,308,136,309.77,136,313.57Zm-5.49.35a2.43,2.43,0,0,0-1.07-2.23,4.74,4.74,0,0,0-2.36-.51c-1.69,0-3.43.47-3.43,2.74v1a2.37,2.37,0,0,0,1.08,2.23,4.65,4.65,0,0,0,2.35.52c1.71,0,3.43-.47,3.43-2.75Z"/><path d="M139.83,306.26a11.42,11.42,0,0,1,4.36,0c1.83.42,3.43,1.46,3.41,3.88v1.07a3.45,3.45,0,0,1-1.83,3.29,5.74,5.74,0,0,1-1.58.59,11.42,11.42,0,0,1-4.36,0c-1.86-.41-3.41-1.48-3.41-3.88v-1.07a3.48,3.48,0,0,1,1.82-3.3A6,6,0,0,1,139.83,306.26Zm.35,4.73a1.22,1.22,0,0,0,.52,1.13,2.43,2.43,0,0,0,1.31.28c1.26,0,1.84-.44,1.84-1.41v-.63a1.19,1.19,0,0,0-.54-1.13,2.36,2.36,0,0,0-1.3-.29c-1.27,0-1.83.44-1.83,1.42Zm10.9-4.94h5.13l-5.48,15.42h-5.14Zm3.13,11.33V316.3A3.49,3.49,0,0,1,156,313a6.58,6.58,0,0,1,1.59-.59,12,12,0,0,1,4.36,0c1.85.4,3.42,1.49,3.42,3.88v1.08a3.47,3.47,0,0,1-1.83,3.29,6.29,6.29,0,0,1-1.59.59,11.42,11.42,0,0,1-4.36,0C155.77,320.84,154.21,319.79,154.21,317.38Zm3.76-.22a1.23,1.23,0,0,0,.52,1.13,2.43,2.43,0,0,0,1.31.28c1.26,0,1.84-.44,1.84-1.41v-.64a1.21,1.21,0,0,0-.53-1.13,2.53,2.53,0,0,0-1.31-.28c-1.27,0-1.83.44-1.83,1.41Z"/><path d="M181.73,307.41V317h11v4.46H176.25v-14Z"/><path d="M212.28,313.92v1c0,5.31-4.3,6.85-9.58,6.86s-9.62-1.55-9.6-6.86v-1c0-5.32,4.31-6.85,9.6-6.86S212.28,308.61,212.28,313.92Zm-5.47.33c0-2.29-1.87-2.7-4.11-2.73s-4.15.44-4.12,2.73v.35c0,2.3,1.87,2.72,4.12,2.75s4.14-.45,4.11-2.75Z"/><path d="M218.72,307.43h6.52l7.53,14.05H226.6l-1.1-2.41h-7l-1.11,2.41h-6.16Zm1.33,8.21h3.86L222,311.49Z"/><path d="M245.68,307.43a7,7,0,0,1,0,14.05h-12.5V307.43Zm-1,4.45h-6V317h6a2.6,2.6,0,0,0,0-5.14Z"/><path d="M254,307.43h16.44V311h-11v1.8h11v3.25h-11v1.8h11v3.61H254Z"/><path d="M285.82,307.43a7,7,0,0,1,0,14.05h-12.5V307.43Zm-1,4.45h-6V317h6a2.6,2.6,0,0,0,0-5.14Z"/><path class="cls-1" d="M908.7,268.53a4.35,4.35,0,0,1,0,8.7h-6.6V280h-4.49v-11.5Zm-1.12,5.32a1,1,0,0,0,1-1,.91.91,0,0,0-.29-.7.94.94,0,0,0-.68-.29H902.1v2Z"/><path class="cls-1" d="M925.36,268.52a4.33,4.33,0,0,1,4.34,4.35,4.2,4.2,0,0,1-.69,2.35,4.26,4.26,0,0,1-1.81,1.58l2.5,3.23h-4.77l-2.17-2.81h-4V280h-4.48V268.52Zm-6.61,3.36v2h5.48a.94.94,0,0,0,.69-.28.92.92,0,0,0,.29-.69,1,1,0,0,0-1-1Z"/><path class="cls-1" d="M931.1,268.53h13.46v2.94h-9V273h9v2.66h-9v1.47h9V280H931.1Z"/><path class="cls-1" d="M953.68,273c3.21.17,7.72.39,7.71,3.27,0,3.29-3.77,4.07-7.81,4.07s-7.38-.5-7.81-4.07h4.7c.52.89,1.71,1.12,3.11,1.12s3.11-.23,3.11-1.12c0-.5-1.4-.58-3.2-.66-3.21-.17-7.72-.39-7.72-3.27,0-3.28,3.77-4.07,7.81-4.07s7.38.48,7.81,4.07h-4.7c-.51-.9-1.7-1.12-3.11-1.12s-3.11.21-3.11,1.12C950.47,272.81,951.87,272.88,953.68,273Z"/><path class="cls-1" d="M967.47,268.53h5.33L979,280h-5.05l-.91-2h-5.76l-.91,2H961.3Zm1.09,6.73h3.16l-1.58-3.4Z"/><path class="cls-1" d="M983.81,268.51v7.86h9V280H979.33V268.51Z"/><path class="cls-1" d="M994.31,268.53h13.47v2.94h-9V273h9v2.66h-9v1.47h9V280H994.31Z"/><path class="cls-1" d="M1022,280v-7.85h-5.33v-3.65h15.15v3.65h-5.33V280Z"/><path class="cls-1" d="M1044.43,268.52a4.35,4.35,0,0,1,4.35,4.35,4.13,4.13,0,0,1-.7,2.35,4.26,4.26,0,0,1-1.81,1.58l2.51,3.23H1044l-2.16-2.81h-4V280h-4.49V268.52Zm-6.6,3.36v2h5.47a.94.94,0,0,0,.69-.28.92.92,0,0,0,.29-.69,1,1,0,0,0-1-1Z"/><path class="cls-1" d="M1055.3,268.53h5.33l6.17,11.5h-5l-.91-2h-5.76l-.9,2h-5Zm1.09,6.73h3.15l-1.57-3.4Z"/><path class="cls-1" d="M1081.76,275.25c-.28,3.89-3.68,5.05-7.83,5.05-4.31,0-7.87-1.26-7.86-5.62v-.84c0-4.34,3.55-5.59,7.86-5.61,4.15,0,7.55,1.17,7.83,5h-4.59c-.42-1.13-1.7-1.4-3.24-1.4-1.83,0-3.39.36-3.36,2.25v.28c0,1.87,1.53,2.22,3.36,2.24,1.54,0,2.83-.27,3.24-1.4Z"/><path class="cls-1" d="M1087.59,276.09V280h-4.48V268.51h4.48v3.93h2l4.22-3.93h5.89l-6,5.75,6,5.76h-5.89l-4.22-3.93Z"/><path class="cls-1" d="M1100.29,268.53h13.47v2.94h-9V273h9v2.66h-9v1.47h9V280h-13.47Z"/><path class="cls-1" d="M1127.23,268.52a4.35,4.35,0,0,1,4.35,4.35,4.13,4.13,0,0,1-.7,2.35,4.26,4.26,0,0,1-1.81,1.58l2.51,3.23h-4.78l-2.16-2.81h-4V280h-4.49V268.52Zm-6.6,3.36v2h5.47a.94.94,0,0,0,.69-.28.92.92,0,0,0,.29-.69,1,1,0,0,0-1-1Z"/><rect class="cls-3" x="862.09" y="300.73" width="302.79" height="45.14"/><rect class="cls-4" x="862.09" y="300.73" width="302.79" height="45.14"/><path class="cls-2" d="M939.35,314.92h7V332.8h-7.85l-9.6-10.92V332.8h-7V314.92h9.6l7.85,9.47Z"/><path class="cls-2" d="M973.22,323.21v1.3c0,6.76-5.48,8.72-12.2,8.73s-12.24-2-12.22-8.73v-1.3c0-6.77,5.49-8.71,12.22-8.73S973.22,316.45,973.22,323.21Zm-7,.43c0-2.92-2.38-3.45-5.23-3.49s-5.28.57-5.24,3.49v.44c0,2.92,2.38,3.46,5.24,3.5s5.27-.58,5.23-3.5Z"/><path class="cls-2" d="M1004.54,315h7.85l-7.85,17.88h-8.29l-3.93-8.94-3.92,8.94h-8.29L972.26,315h7.85l4.14,11.32L988.4,315h7.85l4.13,11.32Z"/><path class="cls-2" d="M1033.19,314.92v12.22h14v5.66h-20.93V314.92Z"/><path class="cls-2" d="M1056.47,314.92V332.8h-7V314.92Z"/><path class="cls-2" d="M1070.3,327.36l5.46-12.41h7.85l-9.17,17.88h-8.29L1057,315h7.85Z"/><path class="cls-2" d="M1084.14,315h20.93v4.58h-14v2.28h14V326h-14v2.29h14v4.59h-20.93Z"/><path d="M937.29,314.92h7V332.8h-7.85l-9.6-10.92V332.8h-7V314.92h9.6l7.85,9.47Z"/><path d="M971.16,323.21v1.3c0,6.76-5.48,8.72-12.2,8.73s-12.24-2-12.22-8.73v-1.3c0-6.77,5.48-8.71,12.22-8.73S971.16,316.45,971.16,323.21Zm-7,.43c0-2.92-2.39-3.45-5.23-3.49s-5.29.57-5.25,3.49v.44c0,2.92,2.39,3.46,5.25,3.5s5.27-.58,5.23-3.5Z"/><path d="M1002.48,315h7.85l-7.85,17.88h-8.29l-3.93-8.94-3.92,8.94h-8.29L970.2,315h7.85l4.13,11.32L986.34,315h7.85l4.13,11.32Z"/><path d="M1031.13,314.92v12.22h13.95v5.66h-20.92V314.92Z"/><path d="M1054.41,314.92V332.8h-7V314.92Z"/><path d="M1068.24,327.36,1073.7,315h7.85l-9.17,17.88h-8.29L1054.94,315h7.85Z"/><path d="M1082.08,315H1103v4.58h-14v2.28h14V326h-14v2.29h14v4.59h-20.93Z"/><path class="cls-2" d="M489,446.59c7.6.38,18.28.91,18.26,7.74,0,7.78-8.92,9.62-18.48,9.62s-17.47-1.17-18.48-9.62h11.12c1.22,2.11,4,2.65,7.36,2.65s7.35-.54,7.35-2.65c0-1.2-3.3-1.38-7.58-1.58-7.59-.39-18.27-.91-18.25-7.72,0-7.78,8.91-9.65,18.48-9.65s17.46,1.14,18.48,9.65H496.1c-1.21-2.15-4-2.66-7.35-2.66s-7.36.49-7.36,2.66C481.39,446.22,484.69,446.39,489,446.59Z"/><path class="cls-2" d="M510.06,436.09h31.87v7H520.68v3.49h21.25v6.3H520.68v3.48h21.25v7H510.06Z"/><path class="cls-2" d="M557.35,436.09H570l14.61,27.23h-12l-2.15-4.66H556.85l-2.15,4.66h-12ZM559.93,452h7.47l-3.73-8Z"/><path class="cls-2" d="M602.35,446.59c7.6.38,18.28.91,18.26,7.74,0,7.78-8.92,9.62-18.48,9.62s-17.47-1.17-18.48-9.62h11.12c1.22,2.11,4,2.65,7.36,2.65s7.36-.54,7.36-2.65c0-1.2-3.31-1.38-7.58-1.58-7.6-.39-18.28-.91-18.26-7.72,0-7.78,8.92-9.65,18.48-9.65s17.47,1.14,18.48,9.65H609.49c-1.22-2.15-4-2.66-7.36-2.66s-7.36.49-7.36,2.66C594.77,446.22,598.08,446.39,602.35,446.59Z"/><path class="cls-2" d="M659.67,448.68v2c.05,10.29-8.34,13.27-18.58,13.29s-18.64-3-18.6-13.29v-2c0-10.32,8.35-13.28,18.6-13.3S659.67,438.38,659.67,448.68Zm-10.61.64c.06-4.43-3.63-5.24-8-5.31s-8,.88-8,5.31V450c-.06,4.46,3.63,5.27,8,5.33s8-.87,8-5.33Z"/><path class="cls-2" d="M689.38,436.05H700v27.23h-12l-14.63-16.63v16.63H662.81V436.05h14.61l12,14.43Z"/><path class="cls-2" d="M741.35,436.07v19.27h8.95v8H721.08v-8h9.63V444.7l-8.29,2.66v-8.63l8.29-2.66Z"/><path class="cls-1" d="M484.15,446.59c7.6.38,18.28.91,18.26,7.74,0,7.78-8.92,9.62-18.48,9.62s-17.47-1.17-18.48-9.62h11.12c1.22,2.11,4,2.65,7.36,2.65s7.36-.54,7.36-2.65c0-1.2-3.31-1.38-7.58-1.58-7.6-.39-18.28-.91-18.26-7.72,0-7.78,8.92-9.65,18.48-9.65s17.47,1.14,18.48,9.65H491.29c-1.22-2.15-4-2.66-7.36-2.66s-7.36.49-7.36,2.66C476.57,446.22,479.88,446.39,484.15,446.59Z"/><path class="cls-1" d="M505.24,436.09h31.88v7H515.86v3.49h21.26v6.3H515.86v3.48h21.26v7H505.24Z"/><path class="cls-1" d="M552.54,436.09h12.62l14.61,27.23h-12l-2.14-4.66H552l-2.15,4.66h-12ZM555.11,452h7.48l-3.73-8Z"/><path class="cls-1" d="M597.54,446.59c7.59.38,18.27.91,18.25,7.74,0,7.78-8.91,9.62-18.48,9.62s-17.46-1.17-18.48-9.62H590c1.21,2.11,4,2.65,7.35,2.65s7.36-.54,7.36-2.65c0-1.2-3.3-1.38-7.58-1.58-7.6-.39-18.28-.91-18.26-7.72,0-7.78,8.92-9.65,18.48-9.65s17.47,1.14,18.48,9.65H604.67c-1.22-2.15-4-2.66-7.36-2.66S590,442.86,590,445C590,446.22,593.26,446.39,597.54,446.59Z"/><path class="cls-1" d="M654.86,448.68v2c0,10.29-8.35,13.27-18.58,13.29s-18.65-3-18.61-13.29v-2c0-10.32,8.35-13.28,18.61-13.3S654.86,438.38,654.86,448.68Zm-10.62.64c.06-4.43-3.63-5.24-8-5.31s-8,.88-8,5.31V450c-.06,4.46,3.63,5.27,8,5.33s8-.87,8-5.33Z"/><path class="cls-1" d="M684.56,436.05H695.2v27.23h-12l-14.63-16.63v16.63H658V436.05H672.6l12,14.43Z"/><path class="cls-1" d="M736.53,436.07v19.27h9v8H716.27v-8h9.62V444.7l-8.29,2.66v-8.63l8.29-2.66Z"/><path class="cls-2" d="M541.13,279.86c.82-2,2.39-2.63,4.49-2.62,11,.05,21.89,0,32.84,0,3.3,0,4.32,1,4.54,4.25a21.11,21.11,0,0,0,9.68,16.81,7.63,7.63,0,0,1,2.18,2.09c.85,1.36.32,2.73-.44,4q-8,13.8-16,27.63c-.33.56-.65,1.14-1,1.7-1.23,2-3,2.52-5,1.28a78.64,78.64,0,0,1-7.1-4.85,61.88,61.88,0,0,1-21.81-32.78c-1-3.73-1.4-7.64-2.08-11.46l-.24-1.43Z"/><path class="cls-2" d="M645.87,277.26h16.36c3.58,0,5,1.43,4.83,5.05q-1.77,34.5-31.17,52.67a3.43,3.43,0,0,1-5.15-1.28q-8.7-14.93-17.32-29.88a3.36,3.36,0,0,1,1.2-5,22.32,22.32,0,0,0,8.39-9.41,23.35,23.35,0,0,0,2-8.43c.17-2.65,1.35-3.71,4-3.72C634.63,277.25,640.25,277.26,645.87,277.26Z"/><path class="cls-2" d="M603.89,218.1a64.06,64.06,0,0,1,30.94,8.05c2.14,1.19,2.64,3.25,1.31,5.56q-7.08,12.22-14.18,24.45l-2.53,4.36c-1.56,2.69-3,3.19-5.78,1.81a21.12,21.12,0,0,0-17-1.14c-1,.34-1.88.8-2.81,1.23-2.55,1.19-4.08.72-5.52-1.76q-6.24-10.73-12.46-21.47c-1.46-2.51-2.93-5-4.38-7.54-1.28-2.25-.72-4.26,1.52-5.5A63.28,63.28,0,0,1,603.89,218.1Z"/><path class="cls-2" d="M603.94,294.63a13.9,13.9,0,1,1,13.93-13.89A13.85,13.85,0,0,1,603.94,294.63Z"/><path class="cls-2" d="M483.47,392.24h-20V312.18h80.11v19.7H508c10.15,16.5,22.7,29.74,38.83,39.47a110.55,110.55,0,0,0,145.63-28.1,111.18,111.18,0,0,0,20.91-49.2l30,4.59c-9.15,47.87-34.59,83.37-78.21,104.84-32.19,15.85-66,18.31-100.56,8.43S504,380.82,484.11,351.2l-.64.5Z"/><path class="cls-2" d="M494.79,259.47l-30-4.63c10.05-50.49,37.57-86.64,84.45-107.67,72.32-26.35,129.75-5,175.51,54.67V161.33h20v80H664.63v-19.9h35.25C679,185.7,640.22,163.94,597.81,166.36A107.86,107.86,0,0,0,530,194.74C510.79,212.06,499.3,233.67,494.79,259.47Z"/><path class="cls-1" d="M527.35,279.86c.83-2,2.4-2.63,4.5-2.62,10.95.05,21.89,0,32.84,0,3.29,0,4.32,1,4.54,4.25a21.11,21.11,0,0,0,9.68,16.81,7.63,7.63,0,0,1,2.18,2.09c.85,1.36.31,2.73-.45,4q-8,13.8-16,27.63c-.33.56-.65,1.14-1,1.7-1.23,2-3,2.52-5,1.28a78.64,78.64,0,0,1-7.1-4.85,61.88,61.88,0,0,1-21.81-32.78c-1-3.73-1.41-7.64-2.08-11.46-.08-.48-.16-1-.25-1.43Z"/><path class="cls-1" d="M632.1,277.26h16.36c3.58,0,5,1.43,4.83,5.05q-1.78,34.5-31.17,52.67A3.43,3.43,0,0,1,617,333.7q-8.7-14.93-17.33-29.88a3.37,3.37,0,0,1,1.21-5,22.39,22.39,0,0,0,8.39-9.41,23.35,23.35,0,0,0,2-8.43c.17-2.65,1.35-3.71,4-3.72C620.86,277.25,626.48,277.26,632.1,277.26Z"/><path class="cls-1" d="M590.12,218.1a64,64,0,0,1,30.93,8.05c2.15,1.19,2.65,3.25,1.32,5.56q-7.08,12.22-14.18,24.45l-2.53,4.36c-1.56,2.69-3,3.19-5.79,1.81a21.09,21.09,0,0,0-17-1.14c-1,.34-1.88.8-2.81,1.23-2.56,1.19-4.09.72-5.52-1.76q-6.24-10.73-12.46-21.47c-1.46-2.51-2.93-5-4.38-7.54-1.28-2.25-.72-4.26,1.51-5.5A63.34,63.34,0,0,1,590.12,218.1Z"/><path class="cls-1" d="M590.16,294.63a13.9,13.9,0,1,1,13.94-13.89A13.85,13.85,0,0,1,590.16,294.63Z"/><path class="cls-1" d="M469.7,392.24h-20V312.18h80.11v19.7H494.26c10.15,16.5,22.7,29.74,38.83,39.47a110.55,110.55,0,0,0,145.63-28.1,111.18,111.18,0,0,0,20.91-49.2l30,4.59C720.44,346.51,695,382,651.38,403.48c-32.19,15.85-66,18.31-100.56,8.43s-60.64-31.09-80.48-60.71l-.64.5Z"/><path class="cls-1" d="M481,259.47l-30-4.63c10.06-50.49,37.58-86.64,84.46-107.67,72.32-26.35,129.75-5,175.51,54.67V161.33h20v80h-80.1v-19.9h35.25C665.22,185.7,626.45,163.94,584,166.36a107.9,107.9,0,0,0-67.86,28.38C497,212.06,485.53,233.67,481,259.47Z"/></g></svg>